# xmcd CD database file
# Copyright (C) 1997 Ti Kan
# 
# Track frame offsets:
#     182
#     11150
#     22330
#     34555
#     45260
#     54047
#     65422
#     75577
#     85332
#     96017
#     107750
#     118687
#     129690
#     139637
#     156967
#     167100
#     183492
#     193957
#     206075
#     219625
# 
# Disc length: 3104 seconds
# 
# Revision: 1
# Processed by: cddbd v1.4b41PL1 Copyright (c) Steve Scherf et al.
# Submitted via: DiscPlay 4.0.4
# 
DISCID=180c1e14
DTITLE=John Lee Hooker - Blues Before Sunrise
DYEAR=1900
DGENRE=
TTITLE0=I Want To Shout
TTITLE1=Good Rockin' Mama
TTITLE2=I'm In The Mood
TTITLE3=Let's Make It
TTITLE4=Hobo Blues
TTITLE5=Hard Headed Woman
TTITLE6=I Wanna Walk
TTITLE7=Onions
TTITLE8=She's Mine ( Keep Your Hands To Yourself )
TTITLE9=Little Wheel
TTITLE10=No Shoes
TTITLE11=Send Me Your Pillow
TTITLE12=I'm Leaving
TTITLE13=Blues Before Sunrise
TTITLE14=Dimples
TTITLE15=Process
TTITLE16=Old Time Shimmy
TTITLE17=Whiskey And Wimmen
TTITLE18=I'm Going Upstairs
TTITLE19=Baby Lee
EXTD=
EXTT0=
EXTT1=
EXTT2=
EXTT3=
EXTT4=
EXTT5=
EXTT6=
EXTT7=
EXTT8=
EXTT9=
EXTT10=
EXTT11=
EXTT12=
EXTT13=
EXTT14=
EXTT15=
EXTT16=
EXTT17=
EXTT18=
EXTT19=
PLAYORDER=
